<?xml version="1.0" standalone="no"?>
<!DOCTYPE svg PUBLIC "-//W3C//DTD SVG 20010904//EN"
        "http://www.w3.org/TR/2001/REC-SVG-20010904/DTD/svg10.dtd">
<svg version="1.0" xmlns="http://www.w3.org/2000/svg"
     width="500.000000pt" height="500.000000pt" viewBox="0 0 500.000000 500.000000"
     preserveAspectRatio="xMidYMid meet">

    <g transform="translate(0.000000,500.000000) scale(0.100000,-0.100000)"
       fill="#000000" stroke="none">
        <path d="M3548 3902 c-131 -70 -238 -132 -238 -138 0 -6 26 -23 57 -37 l56
-25 131 106 c186 150 174 141 155 117 -8 -11 -63 -75 -122 -142 l-107 -121 0
-56 c0 -31 4 -56 10 -56 5 0 27 19 48 42 l39 42 60 -27 c33 -15 65 -27 71 -27
6 0 15 24 21 53 77 373 81 399 62 396 -3 0 -113 -58 -243 -127z"/>
        <path d="M3281 3514 c-292 -264 -705 -498 -1108 -629 l-53 -17 6 -71 c6 -89
13 -137 20 -137 11 0 278 138 374 193 363 209 628 437 853 735 19 24 1 10 -92
-74z"/>
        <path d="M2760 3269 c-125 -58 -281 -109 -445 -145 -92 -20 -158 -28 -281 -31
-145 -5 -338 7 -381 24 -34 13 8 -160 67 -277 150 -300 483 -480 812 -440 332
40 606 275 692 595 19 69 34 295 20 295 -5 0 -38 -28 -72 -63 -58 -59 -63 -67
-73 -126 -34 -211 -171 -402 -356 -495 -127 -63 -286 -87 -414 -61 -151 30
-259 87 -359 189 -49 50 -120 149 -120 167 0 4 26 13 58 19 186 37 503 145
672 230 137 69 319 175 290 169 -3 0 -52 -23 -110 -50z"/>
        <path d="M1300 1965 l0 -235 55 0 55 0 0 235 0 235 -55 0 -55 0 0 -235z"/>
        <path d="M1470 2160 l0 -40 60 0 60 0 0 40 0 40 -60 0 -60 0 0 -40z"/>
        <path d="M1980 1965 l0 -235 60 0 60 0 0 130 0 130 25 0 25 0 0 -130 0 -130
61 0 61 0 -4 149 c-3 129 -6 152 -22 170 -27 29 -83 38 -118 18 l-28 -16 0 74
0 75 -60 0 -60 0 0 -235z"/>
        <path d="M990 1955 l0 -225 60 0 60 0 0 85 0 84 63 3 62 3 3 38 3 37 -65 0
-66 0 0 55 0 54 73 3 72 3 3 43 3 42 -135 0 -136 0 0 -225z"/>
        <path d="M2609 2138 c-6 -24 -33 -125 -58 -225 l-47 -183 58 0 c56 0 58 1 66
33 8 31 10 32 64 35 l56 3 6 -36 7 -35 61 0 c44 0 59 3 56 13 -3 6 -29 108
-58 225 l-54 212 -73 0 -72 0 -12 -42z m111 -235 c0 -19 -5 -23 -30 -23 -33 0
-36 10 -21 70 5 19 12 49 16 65 7 28 9 26 21 -30 7 -33 13 -70 14 -82z"/>
        <path d="M2337 2143 c-4 -3 -7 -19 -7 -34 0 -18 -6 -28 -20 -32 -28 -7 -29
-77 -1 -84 17 -4 20 -16 23 -109 4 -127 16 -145 102 -152 l56 -4 0 46 c0 39
-3 46 -20 46 -18 0 -20 7 -20 85 0 78 2 85 20 85 17 0 20 7 20 45 0 38 -3 45
-20 45 -16 0 -20 7 -20 35 l0 35 -53 0 c-30 0 -57 -3 -60 -7z"/>
        <path d="M1470 1905 l0 -175 60 0 60 0 0 175 0 175 -60 0 -60 0 0 -175z"/>
        <path d="M1683 2070 c-35 -14 -43 -43 -43 -158 0 -90 3 -114 18 -132 24 -30
93 -38 128 -16 25 17 25 17 22 -11 -3 -28 -4 -28 -75 -31 l-73 -3 0 -40 0 -41
111 4 c155 4 149 -6 149 244 l0 194 -55 0 c-43 0 -55 -3 -55 -16 0 -14 -2 -14
-22 0 -24 17 -70 20 -105 6z m122 -155 c0 -65 -2 -70 -22 -73 -22 -3 -23 -1
-23 73 0 74 1 76 23 73 20 -3 22 -8 22 -73z"/>
        <path d="M2890 2068 c1 -7 16 -85 33 -173 l33 -160 59 0 60 0 21 100 c16 75
23 94 28 75 7 -28 36 -169 36 -176 0 -2 27 -4 59 -4 57 0 60 1 65 28 3 15 19
90 36 166 16 77 30 144 30 148 0 5 -24 8 -52 6 l-53 -3 -16 -105 c-17 -110
-18 -110 -39 5 -20 113 -15 105 -70 105 -56 0 -50 8 -76 -125 -20 -102 -27
-94 -39 44 l-7 81 -54 0 c-37 0 -54 -4 -54 -12z"/>
        <path d="M3423 2070 c-36 -15 -43 -43 -43 -168 0 -99 3 -123 18 -142 24 -29
93 -38 127 -16 22 14 25 15 25 1 0 -12 12 -15 55 -15 l55 0 0 175 0 175 -55 0
c-43 0 -55 -3 -55 -16 0 -14 -2 -14 -22 0 -24 17 -70 20 -105 6z m122 -165 c0
-75 -1 -80 -22 -83 -22 -3 -23 -1 -23 83 0 84 1 86 23 83 21 -3 22 -8 22 -83z"/>
        <path d="M3720 1905 l0 -175 60 0 60 0 0 113 c0 123 5 137 52 137 27 0 28 2
28 50 0 42 -3 50 -19 50 -10 0 -30 -9 -45 -21 l-26 -20 0 20 c0 19 -6 21 -55
21 l-55 0 0 -175z"/>
        <path d="M3994 2066 c-17 -7 -34 -21 -38 -31 -3 -9 -6 -70 -6 -135 0 -162 3
-165 139 -165 115 0 138 12 143 75 l3 35 -52 3 c-44 3 -52 0 -58 -18 -4 -14
-15 -20 -36 -20 -26 0 -29 4 -29 30 l0 29 88 3 87 3 -1 78 c0 107 -14 121
-127 125 -54 1 -93 -3 -113 -12z m130 -82 c13 -34 7 -44 -29 -44 -30 0 -35 3
-35 23 0 13 3 27 7 30 12 13 51 7 57 -9z"/>
    </g>
</svg>
